<svg xmlns="http://www.w3.org/2000/svg" width="66" height="52" fill="#889099" xmlns:v="https://vecta.io/nano"><path fill-rule="evenodd" d="M62.81 48.468v-4.844h-1.124v2.81A2.04 2.04 0 0 0 60 45.647a2.81 2.81 0 0 0 0 5.62 2.04 2.04 0 0 0 1.686-.787v.652h1.124v-2.664zm-34.843-2.686h1.922l.011 1.068h-1.911v2.45c0 .539.214.899.776.899a2.16 2.16 0 0 0 1.034-.303l.337 1a2.74 2.74 0 0 1-1.461.416c-1.383 0-1.866-.742-1.866-1.989V46.85h-1.09v-1.068h1.068v-1.63h1.18v1.63zm-15.539 2.001v3.372l-1.18.023v-2.99c0-.91-.382-1.416-1.18-1.416-.374-.018-.737.131-.991.406s-.372.65-.324 1.021v2.979h-1.18v-2.99c0-.91-.393-1.416-1.169-1.416a1.26 1.26 0 0 0-1.315 1.427v2.956h-1.18v-5.373h1.169v.663c.346-.526.945-.83 1.574-.798.722-.031 1.404.336 1.776.955a2.08 2.08 0 0 1 1.888-.955 2 2 0 0 1 2.113 2.136zm27.43-2.136c-.581-.017-1.124.285-1.416.787v-.652h-1.158v5.373h1.169v-3.012c0-.888.382-1.382 1.124-1.382.25-.003.498.042.731.135l.36-1.124a2.5 2.5 0 0 0-.832-.146l.022.022zm-17.264 0a4.02 4.02 0 0 1 2.192.562l-.517.944a3.46 3.46 0 0 0-1.686-.461c-.641 0-1.023.27-1.023.63s.405.461.91.528l.562.079c1.169.169 1.877.584 1.877 1.607s-.899 1.753-2.45 1.753a3.88 3.88 0 0 1-2.327-.697l.562-.91a2.86 2.86 0 0 0 1.787.562c.798 0 1.225-.236 1.225-.652 0-.303-.303-.472-.944-.562l-.562-.079c-1.203-.169-1.855-.708-1.855-1.585 0-1.068.888-1.72 2.248-1.72zm33.5 0c-.581-.017-1.124.285-1.416.787v-.652H53.52v5.373h1.169v-3.012c0-.888.382-1.382 1.124-1.382.25-.003.498.042.731.135l.36-1.124a2.5 2.5 0 0 0-.832-.146l.022.022zm-14.249 4.848c-.545-.535-.84-1.275-.812-2.038v-.023c-.028-.763.267-1.503.812-2.038s1.291-.815 2.054-.772a2.81 2.81 0 0 1 1.933.641l-.562.944a2.36 2.36 0 0 0-1.405-.483c-.896.072-1.586.821-1.586 1.72s.69 1.647 1.586 1.72a2.36 2.36 0 0 0 1.405-.483l.562.944a2.81 2.81 0 0 1-1.933.641c-.763.043-1.508-.237-2.054-.772zm10.135-2.038v-2.675h-1.169v.652a2.04 2.04 0 0 0-1.686-.787 2.81 2.81 0 0 0 0 5.62 2.04 2.04 0 0 0 1.686-.787v.652h1.169v-2.675zm-2.667-1.528c-.883-.033-1.63.646-1.682 1.528-.03.449.129.89.439 1.216s.741.509 1.191.503c.883-.005 1.601-.715 1.615-1.598s-.68-1.616-1.563-1.649zm-15.788-1.282a2.81 2.81 0 1 0 .079 5.62c.808.041 1.604-.219 2.231-.731l-.562-.865c-.444.356-.993.554-1.562.562a1.49 1.49 0 0 1-1.607-1.315h3.99v-.45c0-1.686-1.045-2.81-2.551-2.81l-.017-.011zm.95 1.416a1.33 1.33 0 0 0-.95-.37h-.023c-.751-.026-1.385.553-1.427 1.304h2.81a1.33 1.33 0 0 0-.41-.934zm30.299 3.311c.068.001.136.014.2.039a.56.56 0 0 1 .292.281c.058.133.058.283 0 .416a.56.56 0 0 1-.292.281.53.53 0 0 1-.214.045.56.56 0 0 1-.506-.326.53.53 0 0 1 0-.416c.029-.063.069-.12.118-.169a.56.56 0 0 1 .405-.152h-.003zm-.009.95a.4.4 0 0 0 .158-.034.42.42 0 0 0 .129-.09c.146-.159.146-.403 0-.562-.037-.038-.081-.069-.129-.09s-.107-.034-.163-.034-.111.012-.163.034a.41.41 0 0 0-.135.09c-.146.159-.146.403 0 .562.039.039.084.069.135.09.057.024.118.036.18.034h-.012zm.175-.624c-.042-.032-.094-.047-.146-.045l-.236.006v.495h.107v-.185h.051l.152.185h.129l-.163-.185c.044-.003.085-.021.118-.051.027-.027.041-.063.039-.101a.14.14 0 0 0-.05-.118zm-.27.051v.135h.124c.022.007.046.007.067 0 .008-.016.008-.035 0-.051.008-.016.008-.035 0-.05-.022-.007-.045-.007-.067 0l-.124-.034zm-4.5-3.809c-.883-.033-1.63.645-1.682 1.527-.03.449.129.89.439 1.216s.741.509 1.191.503c.883-.005 1.601-.715 1.615-1.598s-.68-1.616-1.563-1.649zm-41.15 1.527v-2.686h-1.169v.652a2.04 2.04 0 0 0-1.686-.787 2.81 2.81 0 0 0 0 5.62 2.04 2.04 0 0 0 1.686-.787v.652h1.169v-2.664zm-2.668-1.527c-.883-.033-1.63.645-1.682 1.527h-.011c-.03.451.13.894.442 1.221s.747.508 1.199.499c.883-.005 1.601-.715 1.616-1.598s-.68-1.616-1.563-1.649z"/><path opacity=".4" d="M25.522 20.751a20.2 20.2 0 0 1 7.727-15.91C24.955-1.678 13.043-.728 5.885 7.023s-7.158 19.7 0 27.451 19.069 8.7 27.364 2.181a20.2 20.2 0 0 1-7.727-15.904z"/><path d="M65.985 20.751A20.23 20.23 0 0 1 33.25 36.655a20.23 20.23 0 0 0 0-31.814 20.23 20.23 0 0 1 32.736 15.904v.006z"/><path opacity=".65" d="M33.43 37.179c-4.865-3.748-8-9.633-8-16.249s3.135-12.501 8-16.249c4.865 3.748 8 9.633 8 16.249s-3.135 12.501-8 16.249z"/><path fill-rule="evenodd" d="M64.052 32.632v.652h-.118v-.652h-.287v-.135h.669v.135h-.264zm1.298-.135v.787l-.118.006v-.596l-.219.511h-.152l-.219-.511v.59h-.146v-.787h.18l.236.562.236-.562h.202z"/></svg>