<svg xmlns="http://www.w3.org/2000/svg" width="55" height="54" fill="none" xmlns:v="https://vecta.io/nano"><path d="M.008 0v53.95h53.949V29.404 0H.008z" fill="#889099"/><mask id="A" maskUnits="userSpaceOnUse" x="0" y="16" width="54" height="23" mask-type="alpha"><path fill-rule="evenodd" d="M0 16.733V38.83H53.965V16.733H0Z" fill="#fff"/></mask><g mask="url(#A)"><path fill-rule="evenodd" d="M51.404 26.16h-4.051l-.881-1.399v1.399h-5.831l-.517-1.353h-.963l-.509 1.353h-3.478c-.317 0-.651-.026-.987-.087-.206-.037-.412-.087-.615-.154-.164-.053-.327-.116-.485-.189s-.314-.159-.465-.256v.384.302H26.81l-1.053-1.371v1.371H4.723l-.518-1.353h-.963l-.509 1.353H0v-.839-4.556l1.726-4.032h3.86l.854 1.926v-1.926h4.731l.564 1.644.554-1.644h20.335v.413.324c.177-.118.364-.222.559-.311.166-.076.339-.142.517-.197a4.89 4.89 0 0 1 .701-.162 5.67 5.67 0 0 1 .874-.066h6.231l.844 1.906v-1.906h3.769l.962 1.508v-1.508h4.323v9.427zm2.561 3.244v8.846c-.212.131-.444.243-.691.332-.439.159-.929.248-1.452.248H33.658l-1.053-1.371v1.371h-4.187v-2.392c-.601.223-1.279.358-2.026.358h.063v2.034h-6.003l-.863-1.226-.836 1.226h-9.59v-9.426h9.627l.844 1.208.854-1.208h33.004.472z" fill="#323642"/></g><path d="M15.73 30.938v1.29h-3.56v1.235h3.478v1.272H12.17v1.28h3.56v1.281h-5.086v-6.358h5.086zm5.295 6.358h1.907L20.38 34.09l2.534-3.152h-1.852l-1.563 2.016-1.553-2.016h-1.907l2.543 3.179-2.534 3.179h1.853l1.562-2.044 1.562 2.044zm2.243 0v-6.358h3.496c1.354 0 2.198.863 2.198 2.125 0 1.226-.862 2.134-2.252 2.134h-1.916v2.099h-1.526zm8.764-2.289h-.718v2.289h-1.526v-6.358h3.451c1.353 0 2.198.826 2.198 2.016 0 1.017-.644 1.798-1.725 1.998l2.116 2.343H33.93l-1.898-2.289zm9.591-4.069v1.29h-3.56v1.235h3.478v1.272h-3.478v1.28h3.56v1.281h-5.086v-6.358h5.086zm4.187 5.086h-3.26v1.272h3.214c1.372 0 2.189-.836 2.189-2.026 0-1.135-.736-1.798-1.971-1.798h-1.471c-.363 0-.617-.236-.617-.609 0-.382.254-.636.617-.636h2.761l.564-1.29h-3.279c-1.371 0-2.189.836-2.189 1.98 0 1.172.773 1.844 1.98 1.844h1.462c.363 0 .626.236.626.618 0 .39-.263.644-.626.644zm6.049 0h-3.261v1.272h3.214c1.372 0 2.189-.836 2.189-2.026 0-1.135-.736-1.798-1.971-1.798h-1.47c-.364 0-.617-.236-.617-.609 0-.382.254-.636.617-.636h2.76l.564-1.29h-3.279c-1.372 0-2.189.836-2.189 1.98 0 1.172.772 1.844 1.98 1.844h1.462c.363 0 .626.236.626.618 0 .39-.263.644-.626.644zm-18.754-3.787c.545 0 .836.354.836.791s-.291.78-.836.78h-1.789v-1.571h1.789zm-5.676.835a.74.74 0 0 1-.808.781h-1.825v-1.562h1.825c.536 0 .808.345.808.78zM7.475 24.625H5.758l-.545-1.362H2.189l-.536 1.362H.027l2.725-6.358h2.007l2.716 6.358zm1.798-6.058l.037 1.717v4.341H7.829v-6.358h2.679l1.217 4.505 1.208-4.505h2.688v6.358h-1.48v-4.35l.036-1.671-1.762 6.021h-1.381l-1.762-6.058zm12.688.99v-1.29h-5.086v6.358h5.086v-1.299H18.4v-1.262h3.478v-1.271H18.4v-1.235h3.56zm3.36 2.779h-.717v2.288h-1.526v-6.358h3.451c1.353 0 2.198.827 2.198 2.017 0 1.017-.645 1.798-1.726 1.998l2.116 2.343h-1.898l-1.899-2.288zm5.804 2.288h-1.526V21.79v-3.523h1.526v3.56 2.798zm3.896 0h.082l.626-1.353h-.463c-1.045 0-1.662-.654-1.662-1.78V21.4c0-1.008.554-1.762 1.644-1.762H36.9v-1.372h-1.78c-1.962 0-3.033 1.317-3.033 3.125v.109c0 1.889 1.099 3.115 2.933 3.124zm8.373 0h-1.716l-.545-1.362h-3.024l-.536 1.362h-1.625l2.724-6.358h2.008l2.715 6.358zm1.844-3.805l-.018-.527.318.527 2.434 3.805h1.781v-6.358h-1.489v3.678l.018.472-.281-.472-2.38-3.678h-1.87v6.358h1.489V20.82zm-6.084-.181l.463-1.19.462 1.19.564 1.408h-2.044l.554-1.408zm-12.76-1.072c.545 0 .836.354.836.79s-.291.781-.836.781h-1.789v-1.571h1.789zM3.233 20.638l.463-1.19.463 1.19.563 1.408H2.679l.554-1.408z" fill="#889099" fill-rule="evenodd"/></svg>